<?xml version="1.0" standalone="no"?>
<!DOCTYPE svg PUBLIC "-//W3C//DTD SVG 20010904//EN"
 "http://www.w3.org/TR/2001/REC-SVG-20010904/DTD/svg10.dtd">
<svg version="1.0" xmlns="http://www.w3.org/2000/svg"
 width="501.000000pt" height="498.000000pt" viewBox="0 0 501.000000 498.000000"
 preserveAspectRatio="xMidYMid meet">

<g transform="translate(0.000000,498.000000) scale(0.100000,-0.100000)"
fill="#000000" stroke="none">
<path d="M2334 4635 c-4 -8 -2 -45 4 -83 5 -37 7 -70 3 -73 -10 -10 -210 -33
-219 -25 -4 4 -11 42 -17 83 -10 77 -18 90 -45 73 -12 -7 -12 -23 -2 -112 32
-276 37 -298 58 -298 24 0 28 27 17 114 -5 45 -9 82 -8 84 4 5 217 32 224 27
5 -2 11 -35 15 -72 10 -96 15 -113 36 -113 11 0 21 4 25 10 3 5 -6 93 -20 196
-14 102 -25 190 -25 195 0 15 -40 10 -46 -6z"/>
<path d="M2726 4623 c-15 -50 -65 -378 -59 -384 13 -10 211 -41 222 -34 6 3
11 12 11 20 0 13 -30 21 -143 41 -35 6 -38 9 -33 33 3 14 8 48 12 74 7 49 7
49 38 43 17 -4 50 -9 74 -13 38 -5 42 -4 42 15 0 22 -10 27 -80 37 -25 4 -48
9 -51 11 -6 3 8 115 15 122 2 1 41 -4 87 -11 63 -11 86 -12 91 -3 15 23 -1 31
-93 48 -120 22 -127 22 -133 1z"/>
<path d="M1573 4447 c-73 -34 -135 -67 -137 -73 -2 -6 -1 -16 3 -23 6 -8 22
-5 62 14 30 13 59 25 65 25 6 0 43 -69 82 -152 71 -155 91 -183 113 -161 10
10 0 41 -46 140 -32 71 -64 137 -72 148 -26 39 -17 60 40 86 50 23 69 51 37
56 -8 1 -75 -25 -147 -60z"/>
<path d="M3184 4324 c-47 -97 -83 -183 -80 -191 15 -38 43 -3 110 132 80 162
67 171 111 -80 31 -179 33 -185 49 -185 16 0 190 356 181 370 -3 6 -14 10 -23
10 -12 0 -35 -36 -77 -120 -35 -70 -62 -115 -66 -107 -4 6 -17 68 -28 137 -34
195 -40 210 -83 210 -5 0 -48 -79 -94 -176z"/>
<path d="M1157 4192 c-10 -10 -15 -21 -13 -23 6 -6 46 -202 42 -206 -2 -2 -49
13 -105 33 l-103 37 -21 -21 c-16 -17 -18 -22 -6 -26 8 -3 66 -21 129 -42 110
-35 117 -39 171 -95 59 -62 70 -67 88 -46 8 11 -1 28 -42 75 -48 56 -55 69
-71 144 -44 213 -40 203 -69 170z"/>
<path d="M3820 4164 c-11 -13 -6 -22 35 -64 l48 -49 -119 -126 c-115 -122
-137 -156 -103 -163 14 -3 177 154 229 221 12 15 27 27 34 27 6 0 30 -18 51
-40 40 -41 59 -49 71 -29 7 11 -103 128 -187 200 -41 34 -48 37 -59 23z"/>
<path d="M2288 3985 c-576 -82 -1047 -481 -1221 -1032 -49 -154 -61 -244 -61
-443 -1 -205 10 -274 70 -461 169 -527 641 -923 1196 -1005 136 -20 390 -14
508 11 292 63 547 202 755 410 209 208 344 457 406 743 32 152 37 394 11 547
-122 707 -712 1220 -1427 1240 -88 3 -176 -1 -237 -10z m416 -200 c140 -46
255 -127 340 -239 63 -83 85 -125 117 -221 21 -63 24 -94 29 -315 l5 -245 63
-3 62 -3 -2 -647 -3 -647 -833 -3 -832 -2 2 647 3 648 63 3 62 3 0 210 c0 256
12 325 77 459 39 79 61 109 133 181 72 73 101 94 180 132 127 61 206 78 345
73 83 -4 129 -11 189 -31z"/>
<path d="M2412 3629 c-134 -20 -252 -88 -337 -196 -91 -116 -118 -237 -113
-503 l3 -165 520 0 520 0 0 220 c0 204 -2 225 -23 287 -85 245 -321 393 -570
357z"/>
<path d="M4095 3594 c-88 -57 -161 -110 -163 -118 -2 -7 3 -18 11 -24 20 -17
352 201 343 224 -3 9 -6 18 -6 20 0 15 -44 -9 -185 -102z"/>
<path d="M695 3680 c-4 -6 31 -63 76 -128 46 -64 101 -143 123 -174 41 -60 59
-70 70 -41 5 11 -4 33 -24 60 -16 24 -30 50 -30 58 0 9 17 40 37 71 l37 56 46
-7 c73 -12 82 -11 93 7 6 9 9 19 6 22 -8 8 -376 86 -405 86 -12 0 -26 -5 -29
-10z m166 -66 c38 -8 69 -20 69 -25 0 -13 -51 -89 -59 -89 -7 0 -91 115 -91
125 0 7 3 7 81 -11z"/>
<path d="M4287 3319 c-159 -37 -222 -162 -153 -302 33 -69 47 -81 70 -64 17
12 16 15 -8 51 -51 75 -48 162 8 213 60 55 180 69 227 27 33 -30 59 -89 59
-134 0 -36 2 -40 25 -40 23 0 25 4 25 43 0 56 -40 138 -81 170 -31 23 -99 48
-124 46 -5 -1 -27 -5 -48 -10z"/>
<path d="M497 3260 c-28 -22 -86 -176 -71 -190 5 -4 91 -35 191 -68 154 -51
184 -58 194 -46 18 22 -2 37 -81 63 -57 19 -70 27 -65 40 4 9 12 39 17 66 20
90 -31 155 -120 155 -24 0 -49 -8 -65 -20z m118 -52 c25 -19 27 -26 23 -75 -3
-30 -9 -58 -14 -63 -7 -7 -29 -4 -65 6 -92 27 -91 27 -68 82 32 75 71 92 124
50z"/>
<path d="M527 2823 c-21 -99 -30 -312 -19 -452 13 -169 22 -201 53 -201 20 0
21 4 16 43 -23 160 -29 315 -18 435 6 70 14 144 17 165 6 35 5 37 -19 37 -19
0 -26 -6 -30 -27z"/>
<path d="M4397 2843 c-3 -4 -1 -33 4 -63 17 -107 21 -305 10 -430 -7 -69 -13
-136 -14 -150 -2 -19 3 -26 20 -28 27 -4 30 4 44 163 11 124 7 340 -9 460 -6
41 -11 51 -29 53 -11 2 -23 0 -26 -5z"/>
<path d="M593 2017 c-101 -34 -183 -66 -183 -72 0 -5 4 -16 9 -24 7 -11 22 -9
85 9 42 13 78 21 80 19 2 -2 15 -30 29 -61 31 -69 68 -93 134 -85 51 5 89 36
98 78 10 43 -37 200 -59 198 -6 0 -93 -28 -193 -62z m198 -58 c11 -41 10 -50
-4 -73 -21 -31 -60 -43 -92 -28 -27 13 -69 87 -61 107 6 16 127 56 138 46 4
-3 12 -27 19 -52z"/>
<path d="M4155 2032 c-87 -132 -22 -285 139 -326 67 -18 119 -10 169 26 40 29
79 112 81 173 1 45 -1 50 -21 53 -21 3 -23 -1 -23 -36 0 -87 -58 -161 -133
-169 -57 -7 -144 31 -175 75 -32 44 -30 127 4 177 14 21 23 44 20 51 -10 25
-35 15 -61 -24z"/>
<path d="M3952 1568 c-7 -7 -12 -17 -12 -23 0 -6 74 -60 165 -119 136 -88 169
-105 180 -96 8 7 15 17 15 22 0 7 -252 178 -326 221 -6 3 -16 1 -22 -5z"/>
<path d="M792 1531 c-100 -21 -185 -41 -188 -43 -2 -3 -1 -13 2 -23 6 -14 15
-16 53 -11 25 4 55 8 65 9 14 1 33 -17 64 -61 l44 -62 -37 -50 c-31 -42 -34
-52 -25 -70 6 -12 15 -20 21 -18 14 5 249 338 249 354 0 21 -46 17 -248 -25z
m158 -26 c0 -11 -83 -115 -91 -115 -13 0 -63 79 -55 88 16 15 146 39 146 27z"/>
<path d="M3680 1258 c-59 -57 -108 -111 -109 -120 -2 -33 19 -28 63 12 25 23
51 40 58 38 7 -2 64 -57 127 -123 63 -66 118 -120 124 -120 5 0 15 8 21 17 9
15 0 29 -59 90 -39 40 -94 98 -123 129 l-54 56 48 45 c33 31 45 50 41 62 -4 9
-12 16 -18 16 -6 0 -60 -46 -119 -102z"/>
<path d="M1196 1303 c-3 -10 -15 -65 -27 -123 -25 -123 -26 -125 -84 -190 -50
-56 -52 -62 -29 -81 14 -11 23 -5 72 49 56 62 59 63 184 105 70 23 129 46 130
51 2 5 -5 14 -14 20 -13 8 -41 3 -118 -23 -56 -18 -103 -31 -105 -29 -2 2 3
35 11 73 26 119 28 146 13 156 -20 13 -27 11 -33 -8z"/>
<path d="M3363 1013 c-21 -8 -15 -29 42 -143 30 -60 55 -112 55 -115 0 -12
-23 -1 -156 70 -142 76 -173 86 -193 61 -9 -11 5 -46 64 -165 41 -83 75 -154
75 -159 0 -4 8 -17 18 -30 15 -19 20 -21 35 -9 17 12 14 22 -48 151 -36 76
-64 140 -61 143 2 3 81 -36 174 -86 93 -50 174 -91 180 -91 7 0 12 6 12 14 0
20 -168 366 -177 365 -4 0 -14 -3 -20 -6z"/>
<path d="M1597 1003 c-17 -17 -3 -35 48 -60 30 -15 55 -30 55 -34 0 -4 -33
-79 -74 -166 -66 -141 -72 -159 -58 -170 9 -7 19 -13 22 -13 4 0 40 72 81 160
81 175 81 175 150 139 23 -11 47 -18 55 -15 22 8 17 36 -8 45 -13 5 -76 34
-142 65 -132 63 -120 58 -129 49z"/>
<path d="M2773 800 c-56 -9 -105 -18 -107 -21 -7 -6 59 -387 68 -396 7 -7 169
15 204 28 12 5 22 16 22 25 0 17 -23 17 -146 -2 l-40 -6 -12 66 c-7 37 -10 71
-7 75 2 5 26 12 52 15 68 10 83 16 83 31 0 23 -18 26 -80 14 -33 -6 -63 -9
-66 -6 -9 9 -21 117 -14 122 4 2 38 9 76 15 74 12 105 29 82 47 -9 6 -47 4
-115 -7z"/>
<path d="M2095 798 c-11 -31 -51 -378 -45 -389 4 -6 16 -9 26 -7 15 3 20 18
29 90 6 48 13 89 17 93 7 7 203 -16 219 -25 7 -5 7 -27 0 -71 -17 -103 -15
-119 14 -119 14 0 25 6 25 13 0 6 11 95 25 197 25 187 24 199 -12 200 -15 0
-20 -19 -29 -102 -7 -79 2 -75 -144 -55 l-85 12 3 88 c3 82 2 87 -18 87 -11 0
-23 -6 -25 -12z"/>
</g>
</svg>
